<mxfile host="app.diagrams.net" modified="2023-05-25T18:15:24.675Z" agent="Mozilla/5.0 (Macintosh; Intel Mac OS X 10_15_7) AppleWebKit/537.36 (KHTML, like Gecko) Chrome/113.0.0.0 Safari/537.36" etag="A-fZ7BRmWQq86MI29bR_" version="21.3.2" type="device">
  <diagram name="Page-1" id="paIqwyRHkmINme2qWsAg">
    <mxGraphModel dx="954" dy="610" grid="1" gridSize="10" guides="1" tooltips="1" connect="1" arrows="1" fold="1" page="1" pageScale="1" pageWidth="827" pageHeight="1169" math="0" shadow="0">
      <root>
        <mxCell id="0" />
        <mxCell id="1" parent="0" />
        <mxCell id="K6PWF79FvZ6eLf6kt74B-1" value="" style="html=1;verticalLabelPosition=bottom;labelBackgroundColor=#ffffff;verticalAlign=top;shadow=0;dashed=0;strokeWidth=1;shape=mxgraph.ios7.misc.iphone;strokeColor=#c0c0c0;" vertex="1" parent="1">
          <mxGeometry x="300" y="170" width="295" height="590" as="geometry" />
        </mxCell>
        <mxCell id="K6PWF79FvZ6eLf6kt74B-2" value="" style="shape=image;imageAspect=0;aspect=fixed;verticalLabelPosition=bottom;verticalAlign=top;image=data:image/png,iVBORw0KGgoAAAANSUhEUgAAAXwAAADmCAYAAADWbT5bAAAABGdBTUEAALGPC/xhBQAAACBjSFJNAAB6JgAAgIQAAPoAAACA6AAAdTAAAOpgAAA6mAAAF3CculE8AAAAtmVYSWZNTQAqAAAACAAHARIAAwAAAAEAAQAAARoABQAAAAEAAABiARsABQAAAAEAAABqASgAAwAAAAEAAgAAATEAAgAAAAYAAAByATsAAgAAABQAAAB4h2kABAAAAAEAAACMAAAAAAAAAGAAAAABAAAAYAAAAAFDYW52YQBCdWZmZXJpbmcgRXRlcm5hbGx5AAADoAEAAwAAAAEAAQAAoAIABAAAAAEAAAF8oAMABAAAAAEAAADmAAAAAJiXtAEAAAAJcEhZcwAADsQAAA7EAZUrDhsAAAUJaVRYdFhNTDpjb20uYWRvYmUueG1wAAAAAAA8eDp4bXBtZXRhIHhtbG5zOng9ImFkb2JlOm5zOm1ldGEvIiB4OnhtcHRrPSJYTVAgQ29yZSA2LjAuMCI+CiAgIDxyZGY6UkRGIHhtbG5zOnJkZj0iaHR0cDovL3d3dy53My5vcmcvMTk5OS8wMi8yMi1yZGYtc3ludGF4LW5zIyI+CiAgICAgIDxyZGY6RGVzY3JpcHRpb24gcmRmOmFib3V0PSIiCiAgICAgICAgICAgIHhtbG5zOmRjPSJodHRwOi8vcHVybC5vcmcvZGMvZWxlbWVudHMvMS4xLyIKICAgICAgICAgICAgeG1sbnM6QXR0cmliPSJodHRwOi8vbnMuYXR0cmlidXRpb24uY29tL2Fkcy8xLjAvIgogICAgICAgICAgICB4bWxuczp4bXA9Imh0dHA6Ly9ucy5hZG9iZS5jb20veGFwLzEuMC8iCiAgICAgICAgICAgIHhtbG5zOnRpZmY9Imh0dHA6Ly9ucy5hZG9iZS5jb20vdGlmZi8xLjAvIj4KICAgICAgICAgPGRjOmNyZWF0b3I+CiAgICAgICAgICAgIDxyZGY6U2VxPgogICAgICAgICAgICAgICA8cmRmOmxpPkJ1ZmZlcmluZyBFdGVybmFsbHk8L3JkZjpsaT4KICAgICAgICAgICAgPC9yZGY6U2VxPgogICAgICAgICA8L2RjOmNyZWF0b3I+CiAgICAgICAgIDxkYzp0aXRsZT4KICAgICAgICAgICAgPHJkZjpBbHQ+CiAgICAgICAgICAgICAgIDxyZGY6bGkgeG1sOmxhbmc9IngtZGVmYXVsdCI+UmVjb211c2ljIC0gMTwvcmRmOmxpPgogICAgICAgICAgICA8L3JkZjpBbHQ+CiAgICAgICAgIDwvZGM6dGl0bGU+CiAgICAgICAgIDxBdHRyaWI6QWRzPgogICAgICAgICAgICA8cmRmOlNlcT4KICAgICAgICAgICAgICAgPHJkZjpsaSByZGY6cGFyc2VUeXBlPSJSZXNvdXJjZSI+CiAgICAgICAgICAgICAgICAgIDxBdHRyaWI6VG91Y2hUeXBlPjI8L0F0dHJpYjpUb3VjaFR5cGU+CiAgICAgICAgICAgICAgICAgIDxBdHRyaWI6Q3JlYXRlZD4yMDIzLTA0LTE4PC9BdHRyaWI6Q3JlYXRlZD4KICAgICAgICAgICAgICAgICAgPEF0dHJpYjpFeHRJZD43N2Y5ZjcyOC1jZmU2LTQ5ZGQtYWUwOC03NjM5MmNjZGU5Njg8L0F0dHJpYjpFeHRJZD4KICAgICAgICAgICAgICAgICAgPEF0dHJpYjpGYklkPjUyNTI2NTkxNDE3OTU4MDwvQXR0cmliOkZiSWQ+CiAgICAgICAgICAgICAgIDwvcmRmOmxpPgogICAgICAgICAgICA8L3JkZjpTZXE+CiAgICAgICAgIDwvQXR0cmliOkFkcz4KICAgICAgICAgPHhtcDpDcmVhdG9yVG9vbD5DYW52YTwveG1wOkNyZWF0b3JUb29sPgogICAgICAgICA8dGlmZjpPcmllbnRhdGlvbj4xPC90aWZmOk9yaWVudGF0aW9uPgogICAgICA8L3JkZjpEZXNjcmlwdGlvbj4KICAgPC9yZGY6UkRGPgo8L3g6eG1wbWV0YT4KoDdQGQAAQABJREFUeAHtXQncVkP7vvsQSoSshZDsIUuFSlTW9shSfJWQLaIsRSV8CMmWlEpIUUQRZcle9j3731J9liRFkeI/1+F+v3nnnTlzzvOcZznPe0+/t3POzD333HPNc66ZM2uVv5QjcYKAICAICAIlj8C/Sj6HkkFBQBAQBASBAAEhfPkhCAKCgCBQSRAQwq8kBS3ZFAQEAUFACF9+A4KAICAIVBIEhPArSUFLNgUBQUAQEMKX34AgIAgIApUEASH8SlLQkk1BQBAQBITw5TcgCAgCgkAlQUAIv5IUtGRTEBAEBAEhfPkNCAKCgCBQSRAQwq8kBS3ZFAQEAUFACF9+A4KAICAIVBIE1s5nPmc98SR99fVX3iTXXmttqla9GlWvVp1q1apFO9XfiTZV11y5xT8spocffihr9TVq1KDjTzghaz0uBR/Nn08vvPACfTz/I/ryyy9p+fJl9Ntvv1O19dcnpL11ndoKq/q0xx57UuMmjWndddd1qUrM//+++ILmvjKXXnv1Vfruu+/op59+oqXqD3vy1dx4Y9pY/W2+xea03377UyNl00477ZRY2qaiOOW46aabUsdOnUwVoc9zX36F3nv/vVAZDjzggANor7335sfY108/+YTmzJnjjLdB9Q3ohJNOdIZzwLy58+jdd9/hxwrXunW3p1atW1Xwz8bjl19+oeeU7e+/+x599NFH9NOSJeq3upz+/PNPqrFhDapZc2OqV68e1d9lZzrggEa0w447ZJNcWdy7x42jVX/8UfZs3rRu3Zq2q1vX9E7sefXq1cF78Oq8V1W+59N/Fy6i5QqLNWtWU3VVXhtttBHVVenjHd2nYUNqsFcD+te/8tvmrpLP3TJP7d6D5jz7bEYAb7LJJnRIixZ05NFHBdcqVapkpMcW6b1336UObdvZgmL5bV27Nj3/0oux4viEV/2+iqY8+CDdNWYMfaVIPqoD2R940EF03PHH06GHHUprrbVW1KheOfywH3l4Go28/Xb68v/+zyuvC9TZpg6d0bs3dezcmapWraoHZX0fpxzXWWcdeu2tN2mDDTaInG7nDh3p7bfeiiR/Yf/+dMaZvSPJ2oSmPjiFLurXzxYU+G2xxRb00ry5znAO+M9VV9Fdo8fwY4Vry1at6I7Rd1bwz8Tjv//9L91044302PQZqiHyW2QVtevUUZVOazquy3FUf+edI8czBffcdTdauXKl6V32PHLUKGp1eOuy56Rulvz4o3o/76LJ999PS5cujawWnHZYq5Z0woknKvLfK3K8bATzW71kYekS1Up4aOpU6tWjJ7U/pg29/tprWWhLR1S0mg9v2ZIuHzgwFtkjd7///js9+8wz1Pu00+isMzInHhOpt958i1q1ODQgo7hkD10LvllAAy8dQIc1P4RenTfPVJ+35z9US/ClF6NXzvhyeeftt/NmX9oSQgV1+GEtCdc4ZI98LlywgMaPHUtHHX4E3XrzzanK+qSJE+mQps1o1MiRscgemQSnPTj5AerYrj2Nu2tsXvKdGsLX0fjggw/opONPoEcfeUT3Lql7fJ6e2OV4+uabb7LO16EtD8taBxQ8/NBDCvdkbEJr8OSTutLkSZMSsS0TJagQo7oXnn8+6KaKKl+Z5CbcfXfQAFixYkXW2T7w4IOz1pEPBWgwnHfuuUHjJYl84ys8Hy6VhA9g1qxZQxecdz6hxVlqbszo0TR0yBWJEEy1atXo6GOOyRqiGY9Op359L6BVq1ZlrYsVoGtowMWXBBUJ++XzOufZOZExnvNMZl2R+cxPIdLCuNJVVwxNJGmM7zRUfdvF7jAWcXbvMwnvRBKuUePGOR1b0G1MLeEjExgYvGzAAD0/qb9//rnn6dqr/5NYPo5p00YNGFXPSh/GDgZccklWOsIiDxp4GWHwN99u8Q8/0Afvv+9NFi84WvjiKiJw3TXXBo2viiHxfbrkcMJDfGvcMYbfcAM9/dRTboGYIccd3yVmjMzFi4rwMRCFmQ277747bb755pFyhRYGunhKweHT8BI12Bf11Em03rfaeutQQsegbbau/4X96Ndff42kpqoaLN5mm21o2223JdxHcUG+L7o4imjiMlG6dd55+51g9lHiiadcIQYoo4yD1N1+ezq4adNg5tgOO+5ItgkX+K2079ih6BEB19xx+8jIdmJmzpZbbumcMbfhhhvSEUceGVlftoJ5nZbpM7bTsZ2p74UXlol99tlnNOTyQfTKyy+X+dlunp/zXFBJ2MKS8ps560k1hSp8psva62QH5+hRdwZTG302t2vfnk4743TaeZddykR//vlnevONN1TL42ma+dhjhGdM/9p7n8ynBkI5uszeeP31snRcNyD4iy69hFqoAd2q6/49+wYzjJ6bM4euufpq+uqr8Om4GITHLJs9GzRwJZET/2dVV805ffqE6s50Zlmo0hIIRHmha9XlMOXwVjWTq/URh5cTQQX/+muv06wnnqAnZs4MBjuPOOIINV2zZjm5YnxA95WvQYbZZ73POpPwxaI3XBcuWEivvfYqPTnziWC2IsYB8C7nY/o0Y5kdQ7GWHF0xV3fUmNHBKDimPrncokWLXEGJ+W+/ww609tq5gwvkeN8993jtvWzQ5XRK9+4V5NCSaHHoocHf5YMG0Yzp02n9autXkIvrMVZNB/W53XbfjSZOnlxhiiOIH9Pgmhx0oBqA7kIffvBhqCrMVLhxxE2hMkkHvvvOO/Tj4sWh6zxQaYmriMAP3/9Q0VPzwRRLk+wRjC/TZs2bBX+XDR4UTOOsv3N9LWZx3r6vuv98M8tA3veq6Zn7NNynQiZq16lNtet0oPYdOgQzdCZNvD/xNRAVEjU8iqpLx7AteMSPA4tYwhwW+qTdzZ41K/gRhOWjTbu2VrI344BoO3buREcedZQZFOsZA7S+vkrM77/51lsrkL2eEOa633TzLd61AE/Nnh3aYtR1xr3HwJhrkctz6gvR5VAZvP9excVWmEONL6jK7DC2EeYw9vP999+HiQStW/xW99hzz1C5YgicfL9/RhkqMBvZm/bj93Pm2Wfl/TdU9IQPoHyfUOurSiHtztdtALK6sF//vGYTROeblYMZQOij9TmspjxcfbaHOXzqf/LxJ2EiGYdhnd7e+1RsdUHhM08/7dTrqgzQJ+3Dxqm0RAI22XST0JxgERSmT7/55puhcmkJ9L2jeA+OPe64os5O0RM+WhH47A5zO6jullw7LA1ftmxZ6J+vxRNmo2+c4oDGjdTnYO0wFYmHvaHGBHwuzoBT68PL9+XadL+VI3JYuvRnat7iEFuS9KLargL9qTbnesmbHdKcVkQcyLbpLQW/KF84mH11XMdOagHg6ameXIExqP96uo7bd2jv/YotdLkXPeFj+T4W6YS5g5vmfrHG/vs0pIYN9gr9++brr8PMdIb9oiqTb7/91hmOgIMPbhoanovAzz791Ku2wd7Rl4TvseceXn0YqM+FQ2Xd/JBDrKqx98sbahDRdBiQRGVgc01VCz/qzCVb/FLww2ysqHsjocuy3dHHUM9//5uwv0/aHPY28rmDCvCO+mwyw4uK8LHsHtO80Kq67557qavaY2L49TeYNpd7xjTONPT/lTPaePhS9XX6XCEGtZb9vCzULIyvYMpZVLeNmsnj29NnmZpdlAuHLzRM93VtwvfssxVX3eJrAxWF6fbYY49AT9i+LWacUn3upWaLxXHoIsNq7eOPPS7YdC9O3ELKRnlHscljsbuiInxslXBK126ETdYGXXYZYXfCMAfyuEzNSEm7wxRKn9siBrH6dEUN99m1UcxpdCivap5FYL40o9puyv2qWvGY/92sWTMzKHjG9EzThXXnYL8Y39iSqa8Unzt07BjMsY+bN0zD7aqmLfY551zvZIW4unMh72uIYGJCnI34cmFjFJ1FRfhRDNZlhgy9Iut55rq+Qt2vWOHe4Y9tql6AgWm0isPc+mpb5rjOlw9fmnHTY3mMr2CQ1dWt88Xnn9PXRpcctl6wuWbNm1f6AVvGBZXobXeMjDQzhePo18fU9OH2bdqqwfqPde+iu/e9o/jaTYNLJeFjruv1w2+k41WXTym4dSIs2Przz7/yntX11ls3NM3VjoHOsEhh+5UjXi4XoaxSO4ge3Kypc3rmHG0zNeztj1XcpttAnTuA2T7YB0jc3whg6w7MPe96creMIFm0cCGdrL7sfYOiGSlPKNI6njU4f6ptXtLgUkf4WMwxY+bjweKFNAAcxUYsr/a5FSuibW3g0xMn3GfXrxnsjuib2YIFZLlyq9UgLFZz7uUYaNa7dVzdOQeqRWRYgPfnmvA56LnKQ7HqRUU9+Ior6KFHphHWPMR12NdosFpVX6yuhucd9f2uiyVfuVs6mqMcfqdms6CVlW/X49Se1j1AdDs2zJCsosRbpE7PyffgtM8uLErCwGXUrh3sveLbK92Xpo533HueNosuGdsuq/PmziWsBcDnuWt1LeLC/aX+FdJxXnw2+ORs+9r4dIaF4yCP+ybdH5xXgT1nXBWnTQcW+WEaJ1a1F5vzNUTwu8Hvu9i3hygqwkcrAeSBvlYAaHMY1Bt4yaXBlgu28Fz59b/44pxtrYBjHH1uvupesC1T98XLJnzLLfwzcDB1M+r+N1Gmeep7j2Rje1hc9OOPGF5xCwf87l5+6aWgn//lF1+yqmj+D+FbAxP09HVtRZ0htOJX+3vEpuaq73m//fenMeP2J0xnHDXyjuDsCl/lA5swblKMhL/ZZpsxZM7rR+roURwtWsyuqLp0evY6lV5/+y168umnaL311nPihpYADuMoFYdWAeY0h7lnEtyONSwdPWxvy34gejju47TgXlBbP/tcNufA+nRzOCooLG23Oex7jzn5mJtvOuzthN1J8+Fqbhy+kRjsizKjybfPFM4dzqXD4iyMtz2hts1AJeBzH3/8kU+kIOF7NvBv/fCM4q1id0VF+AzWVlttFew2x8+269DBQ7z7dNjiFasfDjUOc9iW9e233g4TSTys4b77enVOUUfaRdliADLTpk3z6st2d09vAkoA3RhNndMzn3FWYk3Vhl/5clGI2LeLKRaO2fYB0vOAw9zz4bC1xoT77qVdd9stNLkolVioghwFoqLH9u1hbpo659nWUAiLk++woiR8gHCqOosVB167HBbE4LSkUnHYOsHnLh84IPSQZlv8OIcqm/HxGbtjvR1N73LPOI/0NrUxms+hPxeyYQ5k4OsrDYsfJwxbI9gcZufcM2GCLUjt7miPYxXO0hNfEzhoPczdc7fdTo4z68knvfv4uwawWUfYFcdwPqm2OI7SVQM92Da44b7hDZuqVcNnhoXZk+sw3zuKHX2vuerqWGagIZTPSqJoCR99mJcOGBgKHg6veGjK1FCZtATiZCrfwg1sL9zjlH8HB4GH5euLz7+g4TfcSC3U4cp33jEqTNQb1vXkk70yt6ndMpGebT8a+N0yYgTdfFPFPnNT8UldTzK9cvaMFr5rwBIHwJsOv8cDGvkrZTNeps/o0vR1b+EUrhuGDbPuMIovQt+sF1QoUb7iXHn44P0P6KwzetOhqiK88frrvdtfg9hefN6+VQWnUbt2fveL4nSjXI8/wT8NfJKanopFo2HbbmDB3muvvhqMRTbeb3913sQbUZJPRKaoBm3NHGGQ8sCDDgoG0swwfh6qpoIdePBBsZb4c9w419N79aIq6l+Yq7VZLbrmuuvCRJxhIPuOnTvThPHjnTIIwA+ldcuW6qCRFoqADqBatTajP1b/QUt/WhosXsF2AJ9G2AMnNBEtsJOyCdtb2LYY0MTotltuCQ4kP1TtyV/7ny+zBeoAdkx1xJQ7n8M4Rnu1ajNfDn346Mv3bczH9mAwzjeQyrJJXVu2bhXMdgnTN/K22+nxGY9Ri8MOU10Om6vJDivp3XffIYyX+FreLdTB2VFnWIXZgC1Rbr/1tuAP3R7YXwkzyrbacivCWAQqfWyVjO2FfQfh7Lf/fmFJFTSskfoK32XXXa3rM3TDsC3MzMdnEjYLxHYewACD5z/+iK223w/K1LdttK4vyfuiJnxkFPtLH3PEkdZWDMKXo2tHnbd6l/q8zKV7Ts0e8Lmts2yd9Dr9NJqmBqN95IoFRPiUxl+uHWZx9Dn/vOBQdV9aIPYH1EEombhzz+sTOlCfiU5fHMzWiUr4+ezOYbtPUAsL71CE7uuWA4mOHzuWo0W+nq22NUjaoUts9pOzgr+4ujdR4wmusZW4unIlf0G/C6lXj55e9ejemTRxolcu3wJF26XDQGA3vpO6ha/gAxlPVYOHaXcYrL762muKLhs4Yatlq1Y5s+sw9cVystpFMd8uDok3bZa//nvGAStYzz43eVKGfnxN4qSyYnLnqqMmfeMWhbYXp8p1i9DNWWg7XekXPeHD8PP6nk8be6aPoWvHt8WwC4Ri8sf+8qf37l1MJgW2XHv9MMIukUk7kA50F8JhwDLKQpnadeoQZpkUwv27R/fg3NMk00ZX1tCrrkxSZda6DlFdlCd165q1nnwouHjApUU/396FQyoIH0v88SkV5rCn/KUXXRwmkpqwfhf1D5apu47kK0RGMHtm0pQH6aijj04seYzRTJ4yJRLpJpaopgj4Ym8dn4vzJeDTlUn4f669NrGtRBof2ER1f47N+3hEWL5xMM2tI293DqKHxS1EGMZyxt59N2Gn0LS5VBA+QD1O7aHt+wR9/rnn6MHJD6StDKz2YiMqEGwm+5LoCqOs4tXlw+4xc+Tm226lG24antVqyO3q1qXr1KyO20aOTGTQMMxmX5hr90w9XqEJH2cUY/ESiN+1n79ur+0e25Gcf0FfmnDvvYS+8iTcvmqA1bffUlg62J/m0oEDaYwafwhbaBmmo1BhmGI67MYbgnLZbrvtMjajqqo8ssEwbsJFP2jLGUJrbNCQIdSl87HsZb1edeWVan/ug/O2ItJqREKeDdViLOxLgnMBpj/6KL300oveKZlofeAQ5QMPOpjatmsXupYhUzPbtW9Pbdq2pSdmzqSnZz+lDrJ4hTBYF+YwewOVF/rrjzjqSO9BKGG6kgxz7Y/PaWCjtCaqVVwM7tguxwXdO9OmPUzTH3mU3nn7becWJLAXZNJAdd+0at2aupxwvHfab9w8dlGNMPwWHn/sseB38PLLLweTKML04D1GlxJ+Pzi8PJ9kF2ZXpmHtO3QgTKnG+8nvgm+QHd2I+6sZdmhsHK1OAauxYf72Bqui5oT+lWlmJV7+EcBWsgvV309LfqKflv4UHMKBmTQ1a25M2223rTr3tk7O9vwJy+03agrmt+ooSkwPhV2YworVojVrbkRbqsFo39YRYbolzI4AVtLi0PfvVWX787Kf6ddfflUHzFQLFq9hBe3Ou+wSLHayx07eF1SC38BXX30dTEH8beVvwWZ5a6vtvzHtuHbtOoRToTAYXaoOU2E/V2crYMbakiVLCKfGrbX2WlS9WnWqpRYy1t2+rnfFbi6xEcLPJbqiWxAQBASBIkIgNX34RYSZmCIICAKCQCoREMJPZbGJ0YKAICAIxEdACD8+ZhJDEBAEBIFUIiCEn8piE6MFAUFAEIiPgBB+fMwkhiAgCAgCqURACD+VxSZGCwKCgCAQHwEh/PiYSQxBQBAQBFKJgBB+KotNjBYEBAFBID4CQvjxMZMYgoAgIAikEgEh/FQWmxgtCAgCgkB8BITw42MmMQQBQUAQSCUCQvipLDYxWhAQBASB+AgI4cfHTGIIAoKAIJBKBITwU1lsYrQgIAgIAvEREMKPj5nEEAQEAUEglQik5sSrXKC7evXqXKgVnYKAIFDECODULfxVRldpCX/BNwvokKb+A6wr449C8iwIlDIC5553Hp17Xp9SzqIzb5WzmnPCIQGCgCAgCJQuAkL4pVu2kjNBQBAQBMohIIRfDg55EAQEAUGgdBEQwi/dspWcCQKCgCBQDgEh/HJwyIMgIAgIAqWLgBB+6Zat5EwQEAQEgXIIVNppmeVQsDxsu+22tOVWW1lCxEsQEASKGYHPP/+cfly82GniX3/95Qwr9QAhfEcJn9StG/XsdaojVLxLCYGpD06hTsd2Lpelua/MpcZNGpfzk4d0IND/wn700JQpTmOrVKniDCv1AOnSKfUSlvyVIYDFdqYDsS9YUNH/on79TFF5FgRSj4AQfuqLUDIQFQEbsSPuQgvh2/yipiNygkCxIiCEX6wlI3blDQFXRbBs2bJYNti+IGIpEGFBIMcICOHnGGBRXzwIxG21f/jBh7GMd1UcsZSIsCCQQwSE8HMIrqguLgTyQchxvwqKCyGxptQREMIv9RKW/AUIxG2tI9L8D+O18BEnk3QQT5wgkA8EhPDzgbKkEYpAPlrFSCNul05cu+LqDwVFAgWBHCAghJ8DUEVlPATy1SqO26UTl/Chf97cufEyL9KCQB4REMLPI9hpSyou4UXNn202C+bDF8rNnz/fmnQmXTpWRRl6ZloRjhh+U4YpSrRSR0AIv9RLOMP8gYAzJRxfklONVZDLVXdLPlrGCxcutJqG9JNySVYSmVa4+cAyKbxET34REMLPL96pSS2fpPGhGhzNR3px+9hdLf+wQtRJWr8Pi+MKywaTbNN22ST+6UZACD/d5Vcy1mdCrrnOfCYtf/0rIokvpEy7upJIO9f4iv78IyCEn3/MC56irQ/dZlQmhGfTE8UPaeWDpMy8J9kFg3zqXxHZ4pdNCz8K5iJT+RAQwq98ZW7dLMwGA7pa8umSJl+b7eZMnVx2fWSL3/Lly21ZiOQXB0tgMO6usZH0ilC6ERDCT3f5xbI+l+QW1ZAwG0wyjqozabkkvzTMLwqbra5umzikretFRRGGsy6Le+R3/Lhxprc8lyACQvglWKiuLDGR6d0OLtlc+bMNudLv0+siUZ10dbLU/X26beFRKzGzYtBtsOkN83PlMSwOfhNcNnwNk5ewdCIghJ/OcsvYahBJVBLKOJEEI2ZDfDYzktZnS0MnzCjki75+s0x0HbY0fH6Z9P/PnjUrUBvFZl/6El6cCAjhF2e55MyqOERSyC8BBiCOvRynUFcmSr1S0e9ddtmmpRYSe7Pycdkt/ulDQAg/fWWWtcWvzpsXSUfUFz+M1MLC2IgoMiwbdo3S/cKkHKbHF+aqhGz5QEvb5m+mYRJ8VOxNPfysTw9lP7kKAkL4lew3AALK5HOfYbKRl4sAEScsjHWGkXA2trJ+/WqzXw+Pcn/lFVdEEQumaGIA9cohfnmT4M0KIFKCmlA28VEeUSpPLTm5TQkCQvgpKahiMXOeZc8bH7noJJvt3HTGwVWRuPyTSpfTj3IFiYM8TTK3xdW/umY/OStSHJsel585KOySg79eXmFyEpY+BITw01dmWVnMA3OZvtS2ueU+QtNJGPHDWvRm5lyyrkrGlS+2WydWPa1cVgiuVcQ6LrCFn28eMYI4jiufbHvUlnjcLyUX7pyuXNOJgBB+OsstY6s/+mdnSCaXMEW2fmAQqkkyPjIxydRFyjZbXLJM4GYcH0Ga8vzs0sfh2VzN/LMus2uIcQTZcpywyhSt9jF33snqKlx17KBHWvkVIKp0HkL4JVzkcV5wGww28gQZMTHZ4tj8siFTW6XDadgqrTCC5Hg6EbJf3Kst7TAdZiXJsigjtgfYuuRYXr8ir99++63uVe7etDFqueHrQlr45aAsmQch/JIpyooZASGYLz1LcQuSn+NcoxJHHJ02WRChrdJhWVsYkyfL2K4uTGyyLr+wdGzY2vygG2XE5DpPzZ7ie1e6Nv8olQTsjVpusJW7lGzpiV96ERDCT2/ZRbKc++xN4Wxa3bZ+8DDSiUo0FWxUS/7hXORqy0NcwvTZZqtUTDvNZ5tdNj/E0+1FWq7y0tPgLzdbJeIqB6Tj+vrRbeB0YEvc/XWSqEg5fbnmBgEh/NzgWjRan5o9Oye26MQS1u2SROIuIrERFdJjQnSlHYfEXSTp0u3yd1Vapr+tMtV1Agu2yVWJ6PJR7k0bOA4Gj21hmEVkczZZm5z4FQ4BIfzCYZ+XlF2kGDVxkzx5B0e9ZewjUJ3E9HhsA+vk56hXW0WDtJgQXXp84a542fi7ysGGR1g6uSZVvXLFF4S5hgDhqGjM3wVsHj9WdtwMK7tiCBPCL4ZSUDboLeZ8mBSVaExyZOIy45vPnAeXP4eDwFgn+5lXlw7EsxHPQ8YRiqY+27Ov0jLj2ORtFRDHs4XBL5PKzpY2p5Pt1axQzPLntG1dT2bcbG2R+MkjIISfPKZ512gjvVwbobfao6Sltxx1+Ysu7Kc/lrv3VQQQthHPQ1OnOgerEQfhUx+cUq6y0InN1jeOeLrT5YH/zTeNqDDArJM8E6WuA35R8qjHQeXHabsqQpaPq5vj6VeukNAgAaGjdQ+9rrRd5azrlPvCISCEXzjsg5RBPGFuxPCbwoKDMCYAn6DrJfXFixoOUnBVPrbWH+RthM3pcZwwu0HeNsdxbWEg2ov69XOmHbdvHPjffFPFcjJJ3kWGesVgszdTvzAMouoEufdXlTLKAPbjCr2usaEk0oxqm8jFR0AIPz5micaYqnU/2MjS9gKZxGESi8tAnTjjttBdOtkf+tAyBpHaXBKtTZdeG242WdPPVVmYckk928oSusPKD7iivLnLDzpcerK1E3jYygldZPzbCebo/7N4z0wPXwNheTHl5Tn/CAjh5x/zCinyy2xrqdteQPOFt8VDIubLZ5I8iKT/BRdWsEf30NM304Ucky0I4cqhQ8uIQdeBe1tcU8Z85ji+OeG2/DNBmTr1Z+TNFleXSfJexzKqXuSj9+mnU9cTTgha2ihD1mPDhVdSm/q5a8b015/xe7lKlaHN8W8HlbqryyvfeNrsFL9wBITww/HJSSgTWVTlZoveJDOT2FmvTmZcqXAYricpEtFl9DC+12017YCMHt9lB+R0knJ1YZjxOY6LYKA3W7dIDZxm4nRczPhst+kfFseU1Z8ZF7S0dd02XMztGliPHo/9cnHNVzq5sL0y6BTCL0Ap24gzzAyTKEzC1EnXpcfW1WIjDFd8mz+37m1hph+3RpEmE5gpgy4FXaeeT93fjGd7NjGzyeh+sC9OGjqxmfmJm7ZuR5T7KK11mx5updvCkvLLdd6TsrOy6hHCL0DJu4jWbLnDNLzcpr857VAnRld2TFJiubhEx/FwjVLRsO1I31y5abNJH/zUw+OkBdt0Qsazz6FM0HWSiTNtA6Y+4vOFh9mBvOmVE/+ezIZENmnY0tfLwxaeqR/sTNrWTG0p9XhC+AUo4XHGAhV+YW2muIhLf+F9L6JJBHo6SJv7bXP94mHlpu5sM3R4INW0OQwj1smVCz/r1yiEAqyHGoeVhOnU9ev3sLVhg710rwr3Zv4qCHg89EqGZxWZeXT9djyqncF6mqaQ/ns0w3zPwCJbPHxpSPjfCAjhF8EvgV/YOKbgZdZfcNy7lryjrz7MgXjHjx1HJx1/QoUXL0nS0Ekb9rqm9mG8Qc8bbI+Ckd5lYX71RM1HFDlTdxi2uQpzDc7mKj2f3rDKwBXXNq7kkhX/ZBAQwk8Gx1hadGLiiGilmyTHYbYruh/0VhHuzS8HbvnrRGvTBT8M9oHszBatbpMZhnicBu7juLDZQUjHlpauX7cLNpjkkaldehr6PWONa6a6o1Qmepph97bBWR9mLn1R8xNVzpWO+BceASH8wpdBYAFaSC5CGD9uXFmfrevTGa10s+WZSasrLhy+NEybWL+rdY9wEJdO6OzHcXHV46Or6Baju0iXxX3UgU5TDs+wBRUsrrxuwlZpm2maz2aezPBcPfvS9ZUh28Xdbfyc5FUqkyTRdOta2x0kIflAAAN8jRo3DpIyyYbTRwsdL2WdbepUGCjllu3dqlJIwvnIIU4aqJwyeZFBpqYdesWBritdL+71Z9NGYOSqTE1ZyG244YZl3njG9g/Qj2uUrqWyyHm+MTHj5PnrhJ8LfYU9u+2+W7n5/FErnULbnvb0pYVfwBLECwoyZ7ICuej98K4XWDfZ7K5xfQHoccLuoxJjmA4Osw3KcpjvavZRAyPOG7eyfTo43Nf6Zzm+ml0jnI/gK0rZYbokMTN1x3mOYwc3FOLoN2V7n/Z3t6Krm+uMXqeV+z1zfP5dF3PlybaW2lUIP88lqre2+F5v3WC1atkLoVpCPme+NLouX9wo4fgCgQNBsF0czyRG9uerL5zlol5BuCB9vTvHFxfySdthpmniYoYX6pm7nbhBkbQdKA9siQx8bb874MKVpZ62WR5mo0WXlftkEZAunWTx9GpjcgDZmz98RMbLibDGTf7u5tEVclzdz3yZzWddNpN7vIzYPAtz/2toXR0+XbA1DjH79CEceNkwcMUF2evz+l1yhfCP0xqPap/e7aXHMcmYu7j4N8aVuh4n6v1sdcAOjmbcddddy0VBOXGFUy5APZj+ZqPFlJfn5BCQFn5yWFbQtOTHHyssNmIhTJU0f/gchquN2FARmERhvsz6s4sA9HRc93rFwQu9bC0xXU7XNU99ESTtQCxxBg6xujiOfFx7+QstbjzI28o3Ez16HFdZ6DK4Rzly+uhCtJWrGcf1jLhIF2XDDhVK84Ob8mNw5e44PHDFjQYB+7M95SLJQ+IICOEnDml5ha4fMl4UWwsfsUHq5klD7G/qM1tn+kuv35e3yv+EllsUp1cwurztU14Pz+SeySVqXBe+UeP75Myy8Mnrg/Jx4/p0h4XrOICM0aLmhkPc8RBXOlxp4PeIsudnnuVk/h7Q/w8b+PfD9rj0i38yCAjhJ4OjUwtebCxoCtv33myJY+UrvwisGC+Q+UWAlje/WCxnxmP/qFe8sLDV1Bs1PuSQZ73FFydummQxMyoOceukpt8nkec4XxtoCMButK6T7nbD70afMYZ8wjYmfLZTr4SSyL/oiIaA9OFHwyljKf7x165dmzod29mqx9YSB7nrpIvBXMjtovWV2rorzMrDmmCIJ9JEWtk4nsaYjY40xAWJzT14brlpnFHt1lv7UeO45JjAXeFmWmgUcEvcFSdJf/2sW7OCtP32k0xbdJVHQFr45fHI2RO3vHUS1xOztbT0wSx+MXwtQ5bTdce9d9lo6rFVOJDh1pwpX4rPwCoTzH3lGAcr/m3Z4qAVb6YFsofdWNCXD2f7bXO6+bKB06vsV2nh5+kXwN0xOonrSZsvJcJsn71hLw/rw0uORVq5diC6TMgu13YVu34eqEzSTttvBfptlQFX6PksO3x5YrdUs4WP3z1m+JhfIUliI7r+h4AQ/v+wyPld3BfdfDmiGoiXPNO4UdMQucwRsJFw5trCYzK5s5TtXAQOy+UVlQvGpmxTezFBwLQzl7ZUZt3SpZPH0re14sOSN1ebhsnqYXi5hPB1RIrrPumWdVjruL9xxnDSacdF1kbs7IcdW8XlFoFK28J/5ZVXaMnSpU50H53+KH2zcIEzPErAypUry6UxeMjgYIAvLN0oen0yY+4aQ7Xr1CmXti+OhOcHgUsuuYTefuutxMrmk88+pcU/LKbX33iDfv/99wqZyPVvrUKCWXj07duXvvz6qyw0/B31pZdfDsX3088+yzqNtCqo8pdyaTU+G7vx4xo+fHg2KiSuICAIpBCBIw4/gmY+MTOFlmdvsnTpZI+haBAEBAFBIBUICOGnopjESEFAEBAEskdACD97DEWDICAICAKpQKDSDto2adyExm/knhXQtFlT2qdhw6wKEYO2o0fdWabj3PP6BPOiH5oytcyPbxo1bqTm3f9vAyr4d+zcSe1SWV626rpVadXvqzia9Yp4ddSgLfZJWbhgoVVGPAuDAMoZB97cMXKktxyjWFhrs1rBoK3tt4L4tevUDiYKzP/w722u8QxXiN/F3vvsTc2aN1c7mJY/zP6YNsfQjOkzgt87frfZutmzZldYbKbrrFevnv5Yqe4rL+E3aUKb1KzpLOy2bdpSz16nOsOjBGC3zKmTHygTHTx4cLCv/Jynni7z45u+5/cNjtHjZ1xP7XkqmbLn9OnjPc4P8bD17bcLFyW+V4puH+43qFGDflHHAIqLhgAGDPucfx59Mv+jCnsjRdNQXqp+vZ3ozz9WW38rkDxSpYcZW3wIzJ677xEoWPnLr+UV5eHpmWefDVK5d/zd5VI788yz6OUXXgzywFs2lxOI+bBC5e27RYucsXaqxIQvXTrOn0WyAQc0ahSqsJFl/3v9qL3QyEYgjo+D23W3v69GcKKPnTrb9wdKNBFR5kXA1TIG2bscKutCOzRg2PHvlp/lmjwCQvjJY5qRRhu5216A3SKQuE1XRkZFiNSqdesIUqUpAsIEYekb2kXNadKVMbbSiELgerrde/SIam4suSh22BTm83drS78y+Anh56mUuQXGVz3ZOC+IbWm6risT8tHj435rtbOnOD8Cfc47L+ieiUNUXP5x4vgt+VsibmOge88eiZX1Kd27l5lpsyOJ32VZAnKTMQJC+BlDFy8if1rbNjWzvSCuSoAJw5V6EkRy2eWXu9SLv4aA3lrWvENv+XcQKpRgYNjvBb+VpMpa79rDoDS6MPXfsP671P0TzKqoioCAEH4EkLIRQWv53vvvD2ZmxNFjVgJ4gfBnqzB0vZmQkB4f976vCFNenuMjEEbE8bW5Y/gqmFaHt86oS8pMUe9+xG/3XPX1gyt+/+b4lf7bRuUgLn8ICOHnGGu82Jh5EDb7wPzRu7pU9FYUzOZKQM+C3pLS/ePc28gIrTJ9gC1MH2SRh1JvyWWDtY+Iw/BNIkz/jWWTD9ii68IzGgz8G8IVjRBfQ8SsFKBHXPIICOEnj2k5jbYfOoiwZatW5eT0BwyE8gvDLxMqBbNiQBybn64rk3vbVwRaZZhOqDsXoUP2uuuvp2HqzyWj68n1fa5s4FZtLsogDia+/NkInX9fcdKxyYKo77jzf2tNWIZ/Q0insfrtmjYIwTNS+b0K4ecYb9uLBUJEa91F+iB8fBLD6fH5JYpqclJE5Ho59U9z3SZUcviiQXeBS0aXz9U9DxSCkLjizFVaUfXq5Rk1jk+OMbaVN4jWbHTY5HxpuMKhmys+mwy+ZMz0IYffP5ePLZ745QYBIfzc4Fqm1fZjRyA+e5nUzRcQL6lJ7vxSlyl23GRLKLaXEBXQwBgDuWZrzmFqxt4dO3Wq0C9s624CZqhUUflki0vGxhoRzXI1ghN/NMnY/K1lm6CvrPm3rKeLssD5zggL6+rM1jaJXxEBIfyKmCTmA1I3XzhduSvM5h91IDXbvmHbC+xrxel5yuU9ui7wtYGKUicQ+KG7yaysgEVlXifgKgsdO8i4GiWu+D5//v2C2Fm3Tuz8G7X91ny6JTw7BITws8MvNPY666xToe8SEcJaNq6uB1sL1eYXalCeArN5kV35h+losd8x+s7g60dPgxcQ6X6cVXQrJeXwZeHrL08qrXzqseEWJX2UlT6RgMuO9TGxm7q4wuHKAOHsZ8rKc7IICOEni2ckbfoPHQTCLwjuXSRu6wrACxW1q8dmGL+gehi/eHq/vd4602VxbwvT82fK+56RfxepQi9jpacR9vXD8r50o4T/W61M5cpFl8+mDHQ9+bpHmSWBCxae6b9L22/X9vuw+aUNw3yVVdLpCOEnjWhMffih8ycw7vUWE6tyESDCw8iO47uu2b5kSZCGzTaXXTZCscXPlR/KiStEPY2oZWCrYHU92d6b+OiVtqlbrzDNsKjP6IfPxmGlLxwqgCS/xLKxqdTjCuEXoIRtpMFm2D6DTQI0+6o5Lq5ceeh+tnvosL30JomHpWWLb6YVlldTFs9I3yQulouSHsvi6tKjy9jubUQZhoNNh80vU3tsukaOGlXmzRjbfjtlQsYNxzG8E3305df8rSWauCizIiCEb4WlMJ54AWwvgUl0NhlYrHcP4TnshYMO/aXnr4ioaUG/y0WtdGzxkb6LuHx6zfy69NjS1f2whsB0LsxNuVw/81cCWsS2ismXvomRKc/6Tf9MnjPFP5O0JE40BITwo+GUqJTeh6n3CYOAbaRmtvBhjPmyg7AnTppUzk69f7VcwD8PnBamND7/0ovWdQGZEF0mcXT7bPk1KzNdnu+TIBgQng83Tq8Q10xmHem/N86b7qfnA2sWonzNJFkx6OnLfW4REMLPLb5e7Xr/r9m65sg2IsO8eL2/f8bjj1srC9ZhXpEWiBkVB6Y04h4zYLgSYHmXTRye6TWMVHRMWL+tEuCwJK9YFRrX+VrNcfW55IFZnMo0btmBxFH+rjQwS4ldlDy79LAOueYfASH8/GMeO0VbawwvJlprTNDccouqnF9Gs8XI/lH1QC6MvF16XOngK8eWX5e8S3+m/no3F+vQic5mmw17GyY6Adv0cHquqw8DM9x8dullf/O3wP587RjzsBv+bXJ8uRYegUp7xGHhof/bAv2lsJGA7SXUSQkvtdm9EydvOgnZ4ulpmeFMKHxFeDa26PrRhaMfneizU4/L91FaoSyLK2y35RdEp+cRsjZChz87yEPmo/l/nyULf1MHy0a92mzT4+q/Jd0/6n229kVNR+QKh4C08AuHfZCy7yWzveSZEJmZTe4isVUypqzrOQoJs/08KMy6fHEz6Vph3Xy1tbw5zHbFCl5XHJNMfeWGcJ8M2xC1P9ylU/894CASE2tOJ9trlN+KryLM1gaJnx0CQvjZ4Zfz2CbRIEFbn36YIejrBwnoL6OtnzxMR7ZhIHC99c9kaJId59esELiCCrNDJ74wOVdYFEJzxTX9YX9Ue6LKQaeJC9LVfw8Yj2Gsouo1bc/mmcs1Gx0SN3cICOHnDtucaY5LTJjCh5ON8vEyukgGRMWbxenAoMtKr4jYRv4yYNkoFZROfBwv7KpXgnplFBbHFWZWXJCLYo8tnisNrgzDbGX8bOnrOLvScPmbabrK2RVf/IsDASH84iiHnFmB3SJBAiaBMnkknXAYyaGiYuKAPSA7fH3oJMX2+Cq1bO0H2etpm/iwHbYr50EPQ6taJ1RuZZsy+jPu4xCnDSdTX9izK77Ln3XZtvG2lXOcrxrWLdf8IiCEn1+8c5KaPpffTIC7ANA3rb/Y+r0ZJ+6zTlo+vbqt6ObRidvse9aJ1awAfOn4Ws462SO/YYTvS4vj63L4IjF12r5SdOzi4h5HXsfSjMe/EdOfn7GHkE8GssjLwEFyHjLjVoxXIfxiLJWYNtmIhFXohBLlpeV4Ua5McHprz5xVxDJMfrqtejykZ7aKOU4UW0wZPd9mGJ759C6fHGT1SgnPNmdiy/m2yep+wMBnAyov/nowKz5dl3kf1QYznv6MShhpmuWKCtN0vMe96S/PxYOAEH7xlEVOLDFJFYmEtfbYiChkYRIh5qubs1xMGdaPqy8NrgDMlr+uI9N7pA0Ss+GTqU49HvLtI3LIQ0a3gYld14UvoYmTy6+i1sNdOIZhr8cPu+cyMCsas5yhw2VHmH4Jyy8CQvj5xTvvqWX60nOLNQppcabiLszhNFwtef4aYNLhdMwr55GvZrj5zBVeVHkzvu3ZRnY2UjTj6mSPMBuxQ8amn3UlmQ/W6bpi07ZcVMCu9MQ/WQSE8JPFs+i06UThI06b8VFIC/HQ7WC2AnV9YWEsZxJ/FCLjQWno0PPKOnNxNe1EGrCVKzBbK51lTHv0PIJIbXmwpWfqifLM9kWRZRmzwseML+y7JC6dCAjhp7PcMrIaLWa0bm39r3EVmqRm9vHG1WeTB/mBBE3S0WVdeQmLExam6457z2TNV8Tnrwnc6/54htP9XBWyaa/5/Lem8v/bWuF6WuWl7U/QYRuEjavHrl18C4GAEH4hUE84zSitZ04SrTyzG4HDol5BBHrXAwggExKIYjdI0GUvvipcB2e44iCPelgmdkfFySeHVbFwTOB8NeOZX1ncUg+z3VZ52PzMtPRnyIelocvKfToQEMJPRzklYiVe3iRe4GFqv3hdDxOQy0hfK5eJzkZIejqm/ky/KnSdPtttLWXYwTabNuE5ahcM28EVEF91nTp27M8285X9fVceE/HJSXjpIiCEX7plWyFn6C8GUUVpWVeIrHnYiCMqAep91qySic6mF6Tm6rbJlPDjEKWtEoLdbDPnwXUNI38TM05LX0NgyrjS8fkjz3HLnSskn24JTw8CQvjpKatELI1KVHETy5VekL3ZpRFmG1rEaJXnkqxcJM6EbbPPHPOAjIkZV3g4HJydKcP+uCK9qPmMKge9qGSuHTYsOB8Bz+JKBwHZHrl0yrJocxJGhLrRttZsGNm7SAz7BoUdsB23pavbGHbPhG3Lh81WU47tgu1Tp0yhV+fNsybHcpyeTcislMxnWxz2u+6Gikc8cphc042AtPDTXX6xrbd1qcRWYolgIzQWM4kJXRY2O8LInXXpV6sO1ToNI3s9fq7u9Va5Sep6mpxfG3b6FhR6HP3eFk8P1+/DZBGGFj2vPtbjyX1pISAt/NIqT29uwl58b2QloPcv6/I28tXD9XuQoG5HnLi6Htu9b/GXaT+3lm264Kfb6ZIJ89fJ3yWH/Jt2NVLbGfhcHNzCZBEWFu6zQ8LTg4C08NNTVnm31DZDxHYwiY80w1q5yBRI1dbHnYsM+2wx07QNDMPebCsCMx3TrqT1m+nJc+VEQFr4lbPcvbl2EU6cvmBOhLsu+Nl2daVnkw3zM4nTlI2bjm2eP1rDtjxxK1mvADm9ODOD2OYolWAmelm/XCsfAtLCr3xlHinHrp0PMyF8M0EbSSWhF+nYiFhP35a2Hq7f69s26P64ZyLX/W1+XAnYwvS4torKFwfxbfF0vXIvCOgISAtfR0PuyxAA2WAfdNP5CNWUtz1HITJbvHz7xakcsrXN1tcfpRK0yaAbyuafrY0SP/0ICOGnvwxzlgO9a0JPJAnS1/XhPl8zRGxEGKXrxLTX9WwOvrrkTH+bXaaM7Zm/IPSw7j0rVtR6uNxXXgSkS6fylr3k/B8EkvzisHWxZFqhZFoJSMEKAi4EhPBdyIh/zhAoJJG5vlqSyqytGwgVStTFZ7odSVZEul65r7wISJdO5S37SpfzTFvacYBykbS5+CyKTnTXLFywIIqoyAgCkRCQFn4kmESoFBBwkXGSebN9vWSTrm1aaJL2iq7KhYAQfuUq76LIbTYEmGkGbAuoWJet353DkrjaunlMvbnuajLTk+fKiYAQfuUs94Lm2jazJNcGhRG+bUpkkvag1Z/rSiVJe0VX6SIgffilW7aSMw0BTCUNa2knRci2lrrNTzNNbgWBvCEghO+A+uuvv6K5r8x1hIp3GhHYd7/9rGW6+x570AI1OIo/dv0uupi23HILqzzLyLU4Efjh++9DDfvrr79Cw0s5UAjfUbr33XMv4U+cICAIlBYCVapUKa0MxciN9OHHAEtEBQFBQBBIMwJC+GkuPbFdEBAEBIEYCAjhxwBLRAUBQUAQSDMCQvhpLj2xXRAQBASBGAgI4ccAS0QFAUFAEEgzAkL4aS49sV0QEAQEgRgICOHHAEtEBQFBQBBIMwJV1CKEyrsKIc0lJ7YLAoKAIBATAWnhxwRMxAUBQUAQSCsCQvhpLTmxWxAQBASBmAgI4ccETMQFAUFAEEgrAkL4aS05sVsQEAQEgZgICOHHBEzEBQFBQBBIKwJC+GktObFbEBAEBIGYCAjhxwRMxAUBQUAQSCsCQvhpLTmxWxAQBASBmAgI4ccETMQFAUFAEEgrApFOvJr/4XzaZtttaIMNNoicz99//50++fhjp/zmW2xBW6i/XLivvvqK1ll7bdq6dm2neti2xZZb0kYbbeSUcQV899139LVKAyfnbFe3Lm222WYuUa//F59/QTVrbkSbbLqpVfbL//s/2nDDDZ3h1kgZemZSzraklvz4Iy1d+jPtsOMOtmCn39dff03rrruu9XeBBeEfvP+++h1uG7nMYMfChQud6W2/ww6xftNORZaAHxcvpkWLFllC/ue18cabEM7ajeJ8mP7666/01ZdfUTYHxK/6fRV9/PFHtMuuu9I666wTxaxyMh9+8CGtWbO6nJ/5sPMuu1DVqlVN77w///bbb/TpJ58E5xyvrbjC5pYuXUo4LnGn+vVtwaF+wPKLLz6nH9VvsFatWupd2DEjTDmR9959l+rvvHPwfrCffn1fvRs77bSTM5xlI22tsN/e+9CIW2+hgw4+mON5ryDUow4/IjDCJnxSt27U9eRutqCs/Z6aPZsuu3QAzX7madqgRo0K+t584w06u/eZNOvpp6zhFSL84/HG66/TsGuvo/ffe4+23W47+uvPPwkktU/DfejiAQNoD3U2alx3XKfO1L5DBzqx60nWqN1PPoVaHHYonXzKKdbwJD0zKWdb+hPuvptmPDqdHpg6xRbs9DvrjN60Y70dqe+FF5aTAdmjPFGR3zVuHFVdNxphwI7r/nMNbbPNNuX08cO11w+jBnvtxY+JXqc9/DCNun1kmU68+GgEbb311mV+rQ5vXSGvZYHGjQ/T1197jU7t0ZPefu9dI2b0x3sn3EODL7+crrnuOup83LHRI/4jeWzHjvTL8l/K4n366ae0raqgUYmzG3/vPdYKncPzdf1Tvbsd27Wno485mnqdfro12X93O1lx3kHOcFsklPHNN42gSRMnUrVq1WhT1ZD7XlUaq1evJnDemWefFZv4EXeXejvRk089FbwftnR3q78zTZv+aFAp2MLZz161cWgC1+kzHydXDZqAequKlq1a0YOTH6Abr7+BLh8yuJzMmjVr6LIBA+nSgQNjkf3DDz1EgwZeRudfcAGNvXt8UJhQvHzZcpqgnk849jgafvMIQtrikkVg6OAh9IlqjY2/Z0JksmcLdtt999gVD8fN5opKHH/sRgy/ieZ/+CHdMfpO9iqqKwhw7JgxQSNszJ13UqdjOwdfsHGMfFC9I7qrV3d7unXkyKy+OnR9Sd7/61//oqFXXUndTjyJjmnThrbSKmKk8/hjjxG+5Lv37Bk5WXxlnXhcF1pfEf09ivD1r6233nyLBl02kOa+8grdrSq9Qn3llGwf/uWDB9PUKVPogw8+KFdgd48bT5tssgkd07ZNOf+wh//74oughYkfb/eePcrIHnFqbFiDzjrnHBp69VV04fl9g9o8TJeExUPgmquuJnyRoWWPFpO43CDwxMyZtN766xPemz9Ui/LZZ57JTUJFpHXPBg2oXYf2dMWQIeWsAnFfPfRKuuLKobEaq1co7KpVr0733l+e7KEcvQAPTJ1KP//8Mw1XDdFCuZIl/Np1alPvs86iy1VrnjcERY098rbbgoKMA/iE8XfTIS1aULPmzZzR0JpD/+Skifc7ZSQgHgI3Xn89PTdnDo1TLXtUrOJyh8CYO0dTD9WaRcu3e48eNHpUcX6JJI3Ahf36qwbFmzTn2WfLVI8YPpwOVN3X+x9wQJmf7+aHH36gRx6eFlpJrLfeejTw8sto4n33ESqVQri1C5FovtLs2etUmqY+Myfffz8df+KJQa19YteuhMG6OO419I+e1ssbpWWrlvTC8y945UTAj8Btt9xCjz7yCKGbYOONN/ZHcEisXLmSMJhouk1rbVoUfcmmXWHPK1asIAze2dwX6is0Uzdv7rxgcLttu3aBCnTnDL/hBnrn7bdpr733zlRtKuKhIXHpwAE05PJB1OSpA9XA95c0TRH3E7OejGX/26rLBuMzvgHeJgceSOg++2j+fNp3v/1ipZGEcM4Jv0vnioM/O9arR9epAbNcO8w0GHLllXSmGpSpXn0Devedd+i6G66PnexPS5aobiD7LBpdGWR++ukn3UvuM0BgtOpDHjN6DP2pxluAfTazoDDLqb8xCAyTOnbqRD1Ojd4/m0E2Eo8S5OWC8gPanMjK31bybezr6FGj1KSAk8vGR9ZXXTuYRIBW/q0jb4+tL20R2rVvr8b8JtPtt9xK8+bNo74X9I09K27JT4ojHDPtdDwws29j1aW8ZElheCLnhH9BvwvVZ/OwrAkAAAizSURBVOJaep7VVLjq5Z5z+dCocSNqceihdH6fPkE/sD5jIGq6mL65aOECr/iiRQtjtxqrVl2HVqxc4dSNVl3VDKbIORUWecDjjz1OK9Tn7sOPTFNfZpOCmScPTZtGtTarlZHlu+62W0EGbTMy1hMpbACaZ+l4VFQIxkwaDCQOu7F8v3I3NSusRdNmwcyo7dSMtFJ3Q1SffZujjlIDrbtTlxNOiJ3dLbcARyz0xvvjjz9oser+2XLL6FPS11prrWAAfaWDJ6ATf1Gm0uac8A9o1CjWwIcXsQwEOh97LD3//PPUvMUhGcSmoP/+0UceDbqFXArwmTZj+nQ1y+Fkl4jVf7PNN6cF33xjDYPnN2raJ9YsVBa3fPlymjhpEtXdfnvqf8nFQVfDGaedRvdNur/c9L7Kgkeu84kZOZhK2OzAgyokBX/M3BkydGiFsFLzwHRgdF9hxg5a4XHdvvvvF/TLz31lLjVu0tgZ/YnHZwbrSLDWIaqDPfjK/UbxxB577lkh2sIFC4JxyihfwiU7aFsOFQVYJoXIOrp260qff/45jbtrLHtVuKLPEy9IBzUXOY5rqlpRaNXaBnGee3YOLVu2jPbbf/84KlMt2+X4LmVzjVFmaHliILG/6srgwfdUZ7CIjMf88OlqvcQTat3KW2r+vvk3bcZ0mvrgFNX9sKSIrM6dKfi9ZcoTWJTa6/TTaMDFFzvxwhfAVehiPufsSK1xPacHN2tGUx58UPcqu588aXIwC8i25qhM6J+bykH4Zq5jPqNvbuSoO+j2W28NiAdTPbEYYtWqVcHAFhYM4cUYqfo846xGhhmYHlpbrQju+e/uwYIu6MTc/sdmzKD+/frROaorCitt8+VW/7E6qLhQeel/yG8hHLrgRo0ZTVhJeNONw+OboBZt6fnQ7wuVp/iZyE2M8WPHUTNFJGjdYq2M+YeFhHur6YRYkJVvh3U0mCqaJnfm2WfT3vvsQ22POjrgA6zUhcMq6Yn33kftjmlDRx55JHWL2QsAHef0OZfeUrOJBqoFiGjpo0cBFfZtipPuUQsM+6uKJorLeZdOFCPSINNw331pxhMzg9WTIGcUIlqc2B6iTdu2wTx8zO+P67AA45777qVhanXjKV27Ebo0UJiYSYTxj+O6dImrMiv5nt27W+OfdsYZ6kd1kTUs156YpTN2/Dg6tmMnhcv25RY0+dJ+8803afedd7GKoTLtc/551rBS9/zll1+C6YGj7xoTmtVTe/Wifn0voNPOOJ0wrTBf7pFpDwdJHaEIMi0OX6I33DScHps+g+6ZMEGR86XBu4w+eMzIwcruQw87LKPsYLX4FLV6+9r//IcOP6xl0OCEIvASFiRG7QWItLVCRhaWeCRM98PnX5IvASoQdOGgEsBMCXGCQGVFYML48aqbc4VaS3NmaiHA+4wGXA21vUumXUW2zGO3APBEdbXIK+6KXenSsSEawQ+EnCTZI0n8KLCZm5B9hAIQkZJG4LVXX6OWrdO9TQneZ3THJkn2KHR8MeCrNy7ZI6608IGCOEFAECgqBF568cVYmzUWlfFFbIwQfhEXjpgmCAgCgkCSCMigbZJoFomusH3l45iIGS3Y5hqbTMVxvr3bP//sc9VttV7oeQV6emyH7qff5/JsBd43XU/PvMenNfZRiuI4L2GYYvvtempv8zhdhj7MfbbhN4P53FWq/EttaV6PNlV7uIsrPQSE8EuvTOnaq/8TTLUz95WPm1XsK9KhbTv66LNPYy2em6GmlLr2w8c+8TcMu57uV0vZozq2Awc82Fwuz1ZYtHBRMBWX012hBusxn7qe2h6EHVZiY6ZEFMd5CcMU+7RPU4v49O11fbrDMA+Li5W2mIWDPGFmGFZ2YwuHxk2a0OArriBsQiiudBAQwi+dsiz6nGBtAQ4kuVdtZhf1pCc9U4U4WwGnds2cPavMDKykxMpf3a8sMGU3WIfQS+2MebSaH35e3/PLFgNhBtqDDzygzouIfsJdyrJeac0Vwq+0RZ/fjM9+chYNGTSYJqjDH+IefZhfSytPal+o1eP/XfTfYC2Cvg8LZonl44S1yoN08eRUpmUWT1mUrCXYIuJStRJwzNi7gvNSSzajKcvYRjVrqjNo1xAO+BFXORCQFn7lKOeC5RLT6/qccw6NVmSf7fmx2EPc3HkVg79xzzcoGBhawu+/976aT13Y9hZWiWOL6E7tO9ApaoU1judssFeDYJ63ZqrclhACQvglVJjFlpVX1d7iZ595VtCK/Obrb2KdIGTLy8X9K27tsFP9nWj4iBE28aL2u6R/f6d92FojXw5nO+M0t4enPkS91bkRmJXUvHlzOqVHd2rYsGG+zJB08oSAEH6egK5syWDL5zN6nUbXDRtGa629Fp2jiB8DtdguO1M3bfqjsWYLZZpOPuKFDUDX32HHfJhQlsaBBx1E+IPDVxTOITipy/E0Qp061vqIw8vk5Cb9CAjhp78MizIHixcvphG33kKtDm8d2HfxgEvVyWNn0FS1KdZ2desWpc1iFAVjLIOuGKLm4W9KY++6Swi/xH4Uhe1ELDEwJTv/QwDbxB6pThBihy1hO3buFJxghY2fxBUeAWzFjS4cm9tQ7em0Zk1htsS22SN+ySAghJ8MjkWnZc2aP637wOMlL5S7ZMAAql+/Pp2ptlrGkWxxHWzX97Pn+0LmKW4eikkes6c6tGkbnL3AB/Bg/ODFF16g29T5rl2Oj3/UXzHlT2ypiIB06VTEpCR8Ro0cSfgzHY5xQ7dKIRx2DbxxxE3UVZ0ZOmjgZXT1tdfEMqPBbrtb5TEuMHHyJGuYeLoRQHfbqj9WBQec9FMniq2nDpsB8e+w4450kZpGiy8ycaWFgGyeVlrlKbkRBDJCAC17dLVVW78aVV23akY6JFLxIyCEX/xlJBYKAoKAIJAIAtKHnwiMokQQEAQEgeJHQAi/+MtILBQEBAFBIBEEhPATgVGUCAKCgCBQ/Aj8P3T/ePbgJp1pAAAAAElFTkSuQmCC;" vertex="1" parent="1">
          <mxGeometry x="323.58000000000004" y="320" width="247.83" height="150" as="geometry" />
        </mxCell>
        <mxCell id="K6PWF79FvZ6eLf6kt74B-4" value="Enter a Muscian..." style="rounded=0;whiteSpace=wrap;html=1;fontFamily=Verdana;align=left;" vertex="1" parent="1">
          <mxGeometry x="323.58" y="480" width="196.42" height="30" as="geometry" />
        </mxCell>
        <mxCell id="K6PWF79FvZ6eLf6kt74B-5" value="Find" style="rounded=0;whiteSpace=wrap;html=1;fontFamily=Verdana;" vertex="1" parent="1">
          <mxGeometry x="520" y="480" width="50" height="30" as="geometry" />
        </mxCell>
        <mxCell id="K6PWF79FvZ6eLf6kt74B-6" value="Login" style="rounded=1;whiteSpace=wrap;html=1;fontFamily=Verdana;" vertex="1" parent="1">
          <mxGeometry x="387.49" y="520" width="120" height="30" as="geometry" />
        </mxCell>
        <mxCell id="K6PWF79FvZ6eLf6kt74B-7" value="Create an Account" style="rounded=1;whiteSpace=wrap;html=1;fontFamily=Verdana;" vertex="1" parent="1">
          <mxGeometry x="387.49" y="560" width="120" height="30" as="geometry" />
        </mxCell>
      </root>
    </mxGraphModel>
  </diagram>
</mxfile>
